<svg xmlns="http://www.w3.org/2000/svg" xmlns:xlink="http://www.w3.org/1999/xlink" xmlns:lucid="lucid" width="1200" height="1380"><g transform="translate(-540 -60)" lucid:page-tab-id="0_0"><path d="M560 100v1320h580V100" stroke="#000" stroke-width="2" fill="none"/><path d="M560 80h580v40H560z" stroke="#000" stroke-width="2" fill-opacity="0"/><use xlink:href="#a" transform="matrix(1,0,0,1,580,80) translate(202.075 23.6)"/><use xlink:href="#b" transform="matrix(1,0,0,1,580,80) translate(252.02499999999998 23.6)"/><path d="M1140 100v1320h580V100" stroke="#000" stroke-width="2" fill="none"/><path d="M1140 80h580v40h-580z" stroke="#000" stroke-width="2" fill-opacity="0"/><use xlink:href="#a" transform="matrix(1,0,0,1,1160,80) translate(168.1 23.6)"/><use xlink:href="#c" transform="matrix(1,0,0,1,1160,80) translate(218.05 23.6)"/><use xlink:href="#d" transform="matrix(1,0,0,1,1160,80) translate(282.95 23.6)"/><path d="M840 160c0 11.05-8.95 20-20 20s-20-8.95-20-20 8.95-20 20-20 20 8.95 20 20z" stroke="#000" stroke-width="2"/><path d="M756 240c-8.84 0-16 7.16-16 16v48c0 8.84 7.16 16 16 16h128c8.84 0 16-7.16 16-16v-48c0-8.84-7.16-16-16-16z" stroke="#000" stroke-width="2" fill="#fff"/><use xlink:href="#e" transform="matrix(1,0,0,1,748,248) translate(12.074999999999996 14.4)"/><use xlink:href="#f" transform="matrix(1,0,0,1,748,248) translate(83.975 14.4)"/><use xlink:href="#g" transform="matrix(1,0,0,1,748,248) translate(0.5749999999999886 36)"/><use xlink:href="#h" transform="matrix(1,0,0,1,748,248) translate(25.57499999999999 36)"/><use xlink:href="#i" transform="matrix(1,0,0,1,748,248) translate(50.57499999999999 36)"/><use xlink:href="#j" transform="matrix(1,0,0,1,748,248) translate(51.05 57.6)"/><path d="M820 182v38.5" stroke="#000" stroke-width="2" fill="none"/><path d="M819.96 181l1.04-.03v1.06h-2v-1.15z"/><path d="M820 235.76l-4.64-14.26h9.28z" stroke="#000" stroke-width="2"/><path d="M902 580h498.5" stroke="#000" stroke-width="2" fill="none"/><path d="M902.03 581H901v-2h1.03z"/><path d="M1415.76 580l-14.26 4.64v-9.28z" stroke="#000" stroke-width="2"/><path d="M820 238v-79.5" stroke="#000" stroke-width="2" fill="none"/><path d="M821 239h-2v-1.03h2z"/><path d="M820 143.24l4.64 14.26h-9.28z" stroke="#000" stroke-width="2"/><path d="M820 238v-79.5" stroke="#000" stroke-width="2" fill="none"/><path d="M821 239h-2v-1.03h2z"/><path d="M820 143.24l4.64 14.26h-9.28z" stroke="#000" stroke-width="2"/><path d="M741 780c-8.84 0-16 7.16-16 16v48c0 8.84 7.16 16 16 16h158c8.84 0 16-7.16 16-16v-48c0-8.84-7.16-16-16-16z" stroke="#000" stroke-width="2" fill="#fff"/><use xlink:href="#k" transform="matrix(1,0,0,1,733,788) translate(0.09999999999999432 24.799999999999997)"/><use xlink:href="#l" transform="matrix(1,0,0,1,733,788) translate(80.95 24.799999999999997)"/><use xlink:href="#m" transform="matrix(1,0,0,1,733,788) translate(110.95 24.799999999999997)"/><use xlink:href="#n" transform="matrix(1,0,0,1,733,788) translate(37.599999999999994 46.4)"/><use xlink:href="#o" transform="matrix(1,0,0,1,733,788) translate(84.5 46.4)"/><path d="M820 238v-39 22.5" stroke="#000" stroke-width="2" fill="none"/><path d="M821 239h-2v-1.03h2z"/><path d="M820 236.76l-4.64-14.26h9.28z" stroke="#000" stroke-width="2"/><path d="M820 238v-39 22.5" stroke="#000" stroke-width="2" fill="none"/><path d="M821 239h-2v-1.03h2z"/><path d="M820 236.76l-4.64-14.26h9.28z" stroke="#000" stroke-width="2"/><path d="M1436 540c-8.84 0-16 7.16-16 16v48c0 8.84 7.16 16 16 16h128c8.84 0 16-7.16 16-16v-48c0-8.84-7.16-16-16-16z" stroke="#000" stroke-width="2" fill="#fff"/><use xlink:href="#p" transform="matrix(1,0,0,1,1428,548) translate(20.725 24.799999999999997)"/><use xlink:href="#q" transform="matrix(1,0,0,1,1428,548) translate(98.275 24.799999999999997)"/><use xlink:href="#n" transform="matrix(1,0,0,1,1428,548) translate(9.399999999999991 46.4)"/><use xlink:href="#r" transform="matrix(1,0,0,1,1428,548) translate(56.3 46.4)"/><use xlink:href="#s" transform="matrix(1,0,0,1,1428,548) translate(73.7 46.4)"/><path d="M1500 660l20 20-20 20-20-20z" stroke="#000" stroke-width="2" fill="#fff"/><path d="M1207.96 821H934.5v-2h273.46zm293.04 0h-254.5v-2H1499V702.4h2z"/><path d="M1501 702.44h-2v-2.03l1 1 1-1zM933.5 824.64L919.24 820l14.26-4.64z"/><path d="M934.5 826l-18.5-6 18.5-6zm-12.03-6l10.03 3.26v-6.52z"/><use xlink:href="#t" transform="matrix(1,0,0,1,1207.9594093854566,809.2) translate(0 14.4)"/><path d="M840 1310c0 11.05-8.95 20-20 20s-20-8.95-20-20 8.95-20 20-20 20 8.95 20 20z" stroke="#000" stroke-width="2" fill="#fff"/><path d="M832 1310c0 6.63-5.37 12-12 12s-12-5.37-12-12 5.37-12 12-12 12 5.37 12 12z" stroke="#000" stroke-width="2"/><path d="M1318 1310H859.5" stroke="#000" stroke-width="2" fill="none"/><path d="M1319 1311h-1.03v-2h1.03z"/><path d="M844.24 1310l14.26-4.64v9.28z" stroke="#000" stroke-width="2"/><path d="M1651 681h-128.6v-2H1649V281h-83.26v-2H1651zM919.5 281v-2h594.34v2z"/><path d="M1522.44 681h-2.03l1-1-1-1h2.04zM918.5 284.64L904.24 280l14.26-4.64z"/><path d="M919.5 286l-18.5-6 18.5-6zm-12.03-6l10.03 3.26v-6.52z"/><use xlink:href="#u" transform="matrix(1,0,0,1,1513.8428932188133,269.2) translate(0 14.4)"/><path d="M756 540c-8.84 0-16 7.16-16 16v48c0 8.84 7.16 16 16 16h128c8.84 0 16-7.16 16-16v-48c0-8.84-7.16-16-16-16z" stroke="#000" stroke-width="2" fill="#fff"/><use xlink:href="#v" transform="matrix(1,0,0,1,748,548) translate(18.574999999999996 35.6)"/><use xlink:href="#j" transform="matrix(1,0,0,1,748,548) translate(83.525 35.6)"/><path d="M820 322v38.5" stroke="#000" stroke-width="2" fill="none"/><path d="M821 322.03h-2V321h2z"/><path d="M820 375.76l-4.64-14.26h9.28z" stroke="#000" stroke-width="2"/><path d="M1500 622v18.08" stroke="#000" stroke-width="2" fill="none"/><path d="M1501 622.03h-2V621h2z"/><path d="M1500 655.35l-4.64-14.27h9.28z" stroke="#000" stroke-width="2"/><path d="M731 970c-8.84 0-16 7.16-16 16v48c0 8.84 7.16 16 16 16h168c8.84 0 16-7.16 16-16v-48c0-8.84-7.16-16-16-16z" stroke="#000" stroke-width="2" fill="#fff"/><use xlink:href="#w" transform="matrix(1,0,0,1,723,978) translate(23.125 24.799999999999997)"/><use xlink:href="#x" transform="matrix(1,0,0,1,723,978) translate(81.025 24.799999999999997)"/><use xlink:href="#y" transform="matrix(1,0,0,1,723,978) translate(118.97500000000001 24.799999999999997)"/><use xlink:href="#o" transform="matrix(1,0,0,1,723,978) translate(66.05 46.4)"/><path d="M820 862v88.5" stroke="#000" stroke-width="2" fill="none"/><path d="M821 862.03h-2V861h2z"/><path d="M820 965.76l-4.64-14.26h9.28z" stroke="#000" stroke-width="2"/><path d="M917 1010h383.5" stroke="#000" stroke-width="2" fill="none"/><path d="M917.03 1011H916v-2h1.03z"/><path d="M1315.76 1010l-14.26 4.64v-9.28z" stroke="#000" stroke-width="2"/><path d="M1336 970c-8.84 0-16 7.16-16 16v48c0 8.84 7.16 16 16 16h168c8.84 0 16-7.16 16-16v-48c0-8.84-7.16-16-16-16z" stroke="#000" stroke-width="2" fill="#fff"/><g><use xlink:href="#z" transform="matrix(1,0,0,1,1328,978) translate(25.07499999999999 35.6)"/><use xlink:href="#l" transform="matrix(1,0,0,1,1328,978) translate(87.02499999999999 35.6)"/><use xlink:href="#j" transform="matrix(1,0,0,1,1328,978) translate(117.02499999999999 35.6)"/></g><path d="M1336 1120c-8.84 0-16 7.16-16 16v48c0 8.84 7.16 16 16 16h168c8.84 0 16-7.16 16-16v-48c0-8.84-7.16-16-16-16z" stroke="#000" stroke-width="2" fill="#fff"/><g><use xlink:href="#A" transform="matrix(1,0,0,1,1328,1128) translate(12.849999999999994 24.799999999999997)"/><use xlink:href="#l" transform="matrix(1,0,0,1,1328,1128) translate(81.85 24.799999999999997)"/><use xlink:href="#n" transform="matrix(1,0,0,1,1328,1128) translate(111.85 24.799999999999997)"/><use xlink:href="#B" transform="matrix(1,0,0,1,1328,1128) translate(158.75 24.799999999999997)"/><use xlink:href="#o" transform="matrix(1,0,0,1,1328,1128) translate(66.05 46.4)"/></g><path d="M1420 1052v48.5" stroke="#000" stroke-width="2" fill="none"/><path d="M1421 1052.03h-2V1051h2z"/><path d="M1420 1115.76l-4.64-14.26h9.28z" stroke="#000" stroke-width="2"/><path d="M1336 1270c-8.84 0-16 7.16-16 16v48c0 8.84 7.16 16 16 16h168c8.84 0 16-7.16 16-16v-48c0-8.84-7.16-16-16-16z" stroke="#000" stroke-width="2" fill="#fff"/><g><use xlink:href="#C" transform="matrix(1,0,0,1,1328,1278) translate(27.099999999999994 35.6)"/><use xlink:href="#l" transform="matrix(1,0,0,1,1328,1278) translate(91.95 35.6)"/><use xlink:href="#D" transform="matrix(1,0,0,1,1328,1278) translate(121.95 35.6)"/></g><path d="M1420 1202v48.5" stroke="#000" stroke-width="2" fill="none"/><path d="M1421 1202.03h-2V1201h2z"/><path d="M1420 1265.76l-4.64-14.26h9.28z" stroke="#000" stroke-width="2"/><path d="M756 380c-8.84 0-16 7.16-16 16v48c0 8.84 7.16 16 16 16h128c8.84 0 16-7.16 16-16v-48c0-8.84-7.16-16-16-16z" stroke="#000" stroke-width="2" fill="#fff"/><g><use xlink:href="#E" transform="matrix(1,0,0,1,748,388) translate(21.574999999999996 24.799999999999997)"/><use xlink:href="#y" transform="matrix(1,0,0,1,748,388) translate(80.525 24.799999999999997)"/><use xlink:href="#s" transform="matrix(1,0,0,1,748,388) translate(41.55 46.4)"/></g><path d="M820 462v58.5" stroke="#000" stroke-width="2" fill="none"/><path d="M821 462.03h-2V461h2z"/><path d="M820 535.76l-4.64-14.26h9.28z" stroke="#000" stroke-width="2"/><defs><path d="M30-248c87 1 191-15 191 75 0 78-77 80-158 76V0H30v-248zm33 125c57 0 124 11 124-50 0-59-68-47-124-48v98" id="F"/><path d="M106-169C34-169 62-67 57 0H25v-261h32l-1 103c12-21 28-36 61-36 89 0 53 116 60 194h-32v-121c2-32-8-49-39-48" id="G"/><path d="M141-36C126-15 110 5 73 4 37 3 15-17 15-53c-1-64 63-63 125-63 3-35-9-54-41-54-24 1-41 7-42 31l-33-3c5-37 33-52 76-52 45 0 72 20 72 64v82c-1 20 7 32 28 27v20c-31 9-61-2-59-35zM48-53c0 20 12 33 32 33 41-3 63-29 60-74-43 2-92-5-92 41" id="H"/><path d="M143 0L79-87 56-68V0H24v-261h32v163l83-92h37l-77 82L181 0h-38" id="I"/><path d="M24-231v-30h32v30H24zM24 0v-190h32V0H24" id="J"/><g id="a"><use transform="matrix(0.05,0,0,0.05,0,0)" xlink:href="#F"/><use transform="matrix(0.05,0,0,0.05,12,0)" xlink:href="#G"/><use transform="matrix(0.05,0,0,0.05,22,0)" xlink:href="#H"/><use transform="matrix(0.05,0,0,0.05,32,0)" xlink:href="#I"/><use transform="matrix(0.05,0,0,0.05,41,0)" xlink:href="#J"/></g><path d="M212-179c-10-28-35-45-73-45-59 0-87 40-87 99 0 60 29 101 89 101 43 0 62-24 78-52l27 14C228-24 195 4 139 4 59 4 22-46 18-125c-6-104 99-153 187-111 19 9 31 26 39 46" id="K"/><path d="M100-194c62-1 85 37 85 99 1 63-27 99-86 99S16-35 15-95c0-66 28-99 85-99zM99-20c44 1 53-31 53-75 0-43-8-75-51-75s-53 32-53 75 10 74 51 75" id="L"/><path d="M117-194c89-4 53 116 60 194h-32v-121c0-31-8-49-39-48C34-167 62-67 57 0H25l-1-190h30c1 10-1 24 2 32 11-22 29-35 61-36" id="M"/><path d="M135-143c-3-34-86-38-87 0 15 53 115 12 119 90S17 21 10-45l28-5c4 36 97 45 98 0-10-56-113-15-118-90-4-57 82-63 122-42 12 7 21 19 24 35" id="N"/><path d="M84 4C-5 8 30-112 23-190h32v120c0 31 7 50 39 49 72-2 45-101 50-169h31l1 190h-30c-1-10 1-25-2-33-11 22-28 36-60 37" id="O"/><path d="M24 0v-261h32V0H24" id="P"/><path d="M59-47c-2 24 18 29 38 22v24C64 9 27 4 27-40v-127H5v-23h24l9-43h21v43h35v23H59v120" id="Q"/><g id="b"><use transform="matrix(0.05,0,0,0.05,0,0)" xlink:href="#K"/><use transform="matrix(0.05,0,0,0.05,12.950000000000001,0)" xlink:href="#L"/><use transform="matrix(0.05,0,0,0.05,22.950000000000003,0)" xlink:href="#M"/><use transform="matrix(0.05,0,0,0.05,32.95,0)" xlink:href="#N"/><use transform="matrix(0.05,0,0,0.05,41.95,0)" xlink:href="#O"/><use transform="matrix(0.05,0,0,0.05,51.95,0)" xlink:href="#P"/><use transform="matrix(0.05,0,0,0.05,55.900000000000006,0)" xlink:href="#Q"/><use transform="matrix(0.05,0,0,0.05,60.900000000000006,0)" xlink:href="#H"/><use transform="matrix(0.05,0,0,0.05,70.9,0)" xlink:href="#M"/><use transform="matrix(0.05,0,0,0.05,80.9,0)" xlink:href="#Q"/></g><path d="M185-189c-5-48-123-54-124 2 14 75 158 14 163 119 3 78-121 87-175 55-17-10-28-26-33-46l33-7c5 56 141 63 141-1 0-78-155-14-162-118-5-82 145-84 179-34 5 7 8 16 11 25" id="R"/><path d="M100-194c63 0 86 42 84 106H49c0 40 14 67 53 68 26 1 43-12 49-29l28 8c-11 28-37 45-77 45C44 4 14-33 15-96c1-61 26-98 85-98zm52 81c6-60-76-77-97-28-3 7-6 17-6 28h103" id="S"/><path d="M114-163C36-179 61-72 57 0H25l-1-190h30c1 12-1 29 2 39 6-27 23-49 58-41v29" id="T"/><path d="M108 0H70L1-190h34L89-25l56-165h34" id="U"/><path d="M96-169c-40 0-48 33-48 73s9 75 48 75c24 0 41-14 43-38l32 2c-6 37-31 61-74 61-59 0-76-41-82-99-10-93 101-131 147-64 4 7 5 14 7 22l-32 3c-4-21-16-35-41-35" id="V"/><g id="c"><use transform="matrix(0.05,0,0,0.05,0,0)" xlink:href="#R"/><use transform="matrix(0.05,0,0,0.05,12,0)" xlink:href="#S"/><use transform="matrix(0.05,0,0,0.05,22,0)" xlink:href="#T"/><use transform="matrix(0.05,0,0,0.05,27.950000000000003,0)" xlink:href="#U"/><use transform="matrix(0.05,0,0,0.05,36.95,0)" xlink:href="#J"/><use transform="matrix(0.05,0,0,0.05,40.900000000000006,0)" xlink:href="#V"/><use transform="matrix(0.05,0,0,0.05,49.900000000000006,0)" xlink:href="#S"/></g><path d="M115-194c53 0 69 39 70 98 0 66-23 100-70 100C84 3 66-7 56-30L54 0H23l1-261h32v101c10-23 28-34 59-34zm-8 174c40 0 45-34 45-75 0-40-5-75-45-74-42 0-51 32-51 76 0 43 10 73 51 73" id="W"/><path d="M179-190L93 31C79 59 56 82 12 73V49c39 6 53-20 64-50L1-190h34L92-34l54-156h33" id="X"/><path d="M210-169c-67 3-38 105-44 169h-31v-121c0-29-5-50-35-48C34-165 62-65 56 0H25l-1-190h30c1 10-1 24 2 32 10-44 99-50 107 0 11-21 27-35 58-36 85-2 47 119 55 194h-31v-121c0-29-5-49-35-48" id="Y"/><g id="d"><use transform="matrix(0.05,0,0,0.05,0,0)" xlink:href="#R"/><use transform="matrix(0.05,0,0,0.05,12,0)" xlink:href="#O"/><use transform="matrix(0.05,0,0,0.05,22,0)" xlink:href="#W"/><use transform="matrix(0.05,0,0,0.05,32,0)" xlink:href="#N"/><use transform="matrix(0.05,0,0,0.05,41,0)" xlink:href="#X"/><use transform="matrix(0.05,0,0,0.05,50,0)" xlink:href="#N"/><use transform="matrix(0.05,0,0,0.05,59,0)" xlink:href="#Q"/><use transform="matrix(0.05,0,0,0.05,64,0)" xlink:href="#S"/><use transform="matrix(0.05,0,0,0.05,74,0)" xlink:href="#Y"/></g><g id="e"><use transform="matrix(0.05,0,0,0.05,0,0)" xlink:href="#T"/><use transform="matrix(0.05,0,0,0.05,5.95,0)" xlink:href="#S"/><use transform="matrix(0.05,0,0,0.05,15.949999999999998,0)" xlink:href="#V"/><use transform="matrix(0.05,0,0,0.05,24.95,0)" xlink:href="#S"/><use transform="matrix(0.05,0,0,0.05,34.95,0)" xlink:href="#J"/><use transform="matrix(0.05,0,0,0.05,38.900000000000006,0)" xlink:href="#U"/><use transform="matrix(0.05,0,0,0.05,47.900000000000006,0)" xlink:href="#S"/><use transform="matrix(0.05,0,0,0.05,57.900000000000006,0)" xlink:href="#N"/></g><g id="f"><use transform="matrix(0.05,0,0,0.05,0,0)" xlink:href="#M"/><use transform="matrix(0.05,0,0,0.05,10,0)" xlink:href="#L"/><use transform="matrix(0.05,0,0,0.05,20,0)" xlink:href="#Q"/><use transform="matrix(0.05,0,0,0.05,25,0)" xlink:href="#J"/><use transform="matrix(0.05,0,0,0.05,28.950000000000003,0)" xlink:href="#V"/><use transform="matrix(0.05,0,0,0.05,37.95,0)" xlink:href="#S"/></g><g id="g"><use transform="matrix(0.05,0,0,0.05,0,0)" xlink:href="#L"/><use transform="matrix(0.05,0,0,0.05,10,0)" xlink:href="#M"/></g><g id="h"><use transform="matrix(0.05,0,0,0.05,0,0)" xlink:href="#H"/><use transform="matrix(0.05,0,0,0.05,10,0)" xlink:href="#M"/></g><path d="M85-194c31 0 48 13 60 33l-1-100h32l1 261h-30c-2-10 0-23-3-31C134-8 116 4 85 4 32 4 16-35 15-94c0-66 23-100 70-100zm9 24c-40 0-46 34-46 75 0 40 6 74 45 74 42 0 51-32 51-76 0-42-9-74-50-73" id="Z"/><g id="i"><use transform="matrix(0.05,0,0,0.05,0,0)" xlink:href="#O"/><use transform="matrix(0.05,0,0,0.05,10,0)" xlink:href="#M"/><use transform="matrix(0.05,0,0,0.05,20,0)" xlink:href="#Z"/><use transform="matrix(0.05,0,0,0.05,30,0)" xlink:href="#S"/><use transform="matrix(0.05,0,0,0.05,40,0)" xlink:href="#P"/><use transform="matrix(0.05,0,0,0.05,43.95,0)" xlink:href="#J"/><use transform="matrix(0.05,0,0,0.05,47.900000000000006,0)" xlink:href="#U"/><use transform="matrix(0.05,0,0,0.05,56.900000000000006,0)" xlink:href="#S"/><use transform="matrix(0.05,0,0,0.05,66.9,0)" xlink:href="#T"/><use transform="matrix(0.05,0,0,0.05,72.85000000000001,0)" xlink:href="#S"/><use transform="matrix(0.05,0,0,0.05,82.85000000000001,0)" xlink:href="#Z"/></g><g id="j"><use transform="matrix(0.05,0,0,0.05,0,0)" xlink:href="#L"/><use transform="matrix(0.05,0,0,0.05,10,0)" xlink:href="#T"/><use transform="matrix(0.05,0,0,0.05,15.949999999999998,0)" xlink:href="#Z"/><use transform="matrix(0.05,0,0,0.05,25.950000000000003,0)" xlink:href="#S"/><use transform="matrix(0.05,0,0,0.05,35.95,0)" xlink:href="#T"/></g><path d="M233-177c-1 41-23 64-60 70L243 0h-38l-65-103H63V0H30v-248c88 3 205-21 203 71zM63-129c60-2 137 13 137-47 0-61-80-42-137-45v92" id="aa"/><g id="k"><use transform="matrix(0.05,0,0,0.05,0,0)" xlink:href="#aa"/><use transform="matrix(0.05,0,0,0.05,12.950000000000001,0)" xlink:href="#S"/><use transform="matrix(0.05,0,0,0.05,22.950000000000003,0)" xlink:href="#Q"/><use transform="matrix(0.05,0,0,0.05,27.950000000000003,0)" xlink:href="#T"/><use transform="matrix(0.05,0,0,0.05,33.900000000000006,0)" xlink:href="#J"/><use transform="matrix(0.05,0,0,0.05,37.85000000000001,0)" xlink:href="#S"/><use transform="matrix(0.05,0,0,0.05,47.85000000000001,0)" xlink:href="#U"/><use transform="matrix(0.05,0,0,0.05,56.85,0)" xlink:href="#S"/><use transform="matrix(0.05,0,0,0.05,66.85000000000001,0)" xlink:href="#N"/></g><g id="l"><use transform="matrix(0.05,0,0,0.05,0,0)" xlink:href="#Q"/><use transform="matrix(0.05,0,0,0.05,5,0)" xlink:href="#G"/><use transform="matrix(0.05,0,0,0.05,15,0)" xlink:href="#S"/></g><g id="m"><use transform="matrix(0.05,0,0,0.05,0,0)" xlink:href="#P"/><use transform="matrix(0.05,0,0,0.05,3.95,0)" xlink:href="#H"/><use transform="matrix(0.05,0,0,0.05,13.949999999999998,0)" xlink:href="#Q"/><use transform="matrix(0.05,0,0,0.05,18.95,0)" xlink:href="#S"/><use transform="matrix(0.05,0,0,0.05,28.950000000000003,0)" xlink:href="#N"/><use transform="matrix(0.05,0,0,0.05,37.95,0)" xlink:href="#Q"/><use transform="matrix(0.05,0,0,0.05,42.95,0)" xlink:href="#S"/><use transform="matrix(0.05,0,0,0.05,52.95,0)" xlink:href="#Z"/></g><g id="n"><use transform="matrix(0.05,0,0,0.05,0,0)" xlink:href="#L"/><use transform="matrix(0.05,0,0,0.05,10,0)" xlink:href="#T"/><use transform="matrix(0.05,0,0,0.05,15.949999999999998,0)" xlink:href="#Z"/><use transform="matrix(0.05,0,0,0.05,25.950000000000003,0)" xlink:href="#S"/><use transform="matrix(0.05,0,0,0.05,35.95,0)" xlink:href="#T"/></g><g id="o"><use transform="matrix(0.05,0,0,0.05,0,0)" xlink:href="#Z"/><use transform="matrix(0.05,0,0,0.05,10,0)" xlink:href="#S"/><use transform="matrix(0.05,0,0,0.05,20,0)" xlink:href="#Q"/><use transform="matrix(0.05,0,0,0.05,25,0)" xlink:href="#H"/><use transform="matrix(0.05,0,0,0.05,35,0)" xlink:href="#J"/><use transform="matrix(0.05,0,0,0.05,38.95,0)" xlink:href="#P"/><use transform="matrix(0.05,0,0,0.05,42.900000000000006,0)" xlink:href="#N"/></g><path d="M137 0h-34L2-248h35l83 218 83-218h36" id="ab"/><g id="p"><use transform="matrix(0.05,0,0,0.05,0,0)" xlink:href="#ab"/><use transform="matrix(0.05,0,0,0.05,10.65,0)" xlink:href="#H"/><use transform="matrix(0.05,0,0,0.05,20.65,0)" xlink:href="#P"/><use transform="matrix(0.05,0,0,0.05,24.599999999999998,0)" xlink:href="#J"/><use transform="matrix(0.05,0,0,0.05,28.549999999999997,0)" xlink:href="#Z"/><use transform="matrix(0.05,0,0,0.05,38.55,0)" xlink:href="#H"/><use transform="matrix(0.05,0,0,0.05,48.55,0)" xlink:href="#Q"/><use transform="matrix(0.05,0,0,0.05,53.54999999999999,0)" xlink:href="#S"/><use transform="matrix(0.05,0,0,0.05,63.54999999999999,0)" xlink:href="#N"/></g><g id="q"><use transform="matrix(0.05,0,0,0.05,0,0)" xlink:href="#Q"/><use transform="matrix(0.05,0,0,0.05,5,0)" xlink:href="#G"/><use transform="matrix(0.05,0,0,0.05,15,0)" xlink:href="#S"/></g><path d="M47-170H22l-4-78h33" id="ac"/><g id="r"><use transform="matrix(0.05,0,0,0.05,0,0)" xlink:href="#ac"/><use transform="matrix(0.05,0,0,0.05,3.4000000000000004,0)" xlink:href="#N"/></g><g id="s"><use transform="matrix(0.05,0,0,0.05,0,0)" xlink:href="#M"/><use transform="matrix(0.05,0,0,0.05,10,0)" xlink:href="#O"/><use transform="matrix(0.05,0,0,0.05,20,0)" xlink:href="#Y"/><use transform="matrix(0.05,0,0,0.05,34.95,0)" xlink:href="#W"/><use transform="matrix(0.05,0,0,0.05,44.95,0)" xlink:href="#S"/><use transform="matrix(0.05,0,0,0.05,54.95,0)" xlink:href="#T"/></g><g id="t"><use transform="matrix(0.05,0,0,0.05,0,0)" xlink:href="#ab"/><use transform="matrix(0.05,0,0,0.05,10.65,0)" xlink:href="#H"/><use transform="matrix(0.05,0,0,0.05,20.65,0)" xlink:href="#P"/><use transform="matrix(0.05,0,0,0.05,24.599999999999998,0)" xlink:href="#J"/><use transform="matrix(0.05,0,0,0.05,28.549999999999997,0)" xlink:href="#Z"/></g><path d="M33 0v-248h34V0H33" id="ad"/><g id="u"><use transform="matrix(0.05,0,0,0.05,0,0)" xlink:href="#ad"/><use transform="matrix(0.05,0,0,0.05,5,0)" xlink:href="#M"/><use transform="matrix(0.05,0,0,0.05,15,0)" xlink:href="#U"/><use transform="matrix(0.05,0,0,0.05,24,0)" xlink:href="#H"/><use transform="matrix(0.05,0,0,0.05,34,0)" xlink:href="#P"/><use transform="matrix(0.05,0,0,0.05,37.95,0)" xlink:href="#J"/><use transform="matrix(0.05,0,0,0.05,41.900000000000006,0)" xlink:href="#Z"/></g><path d="M145-31C134-9 116 4 85 4 32 4 16-35 15-94c0-59 17-99 70-100 32-1 48 14 60 33 0-11-1-24 2-32h30l-1 268h-32zM93-21c41 0 51-33 51-76s-8-73-50-73c-40 0-46 35-46 75s5 74 45 74" id="ae"/><g id="v"><use transform="matrix(0.05,0,0,0.05,0,0)" xlink:href="#T"/><use transform="matrix(0.05,0,0,0.05,5.95,0)" xlink:href="#S"/><use transform="matrix(0.05,0,0,0.05,15.949999999999998,0)" xlink:href="#ae"/><use transform="matrix(0.05,0,0,0.05,25.950000000000003,0)" xlink:href="#O"/><use transform="matrix(0.05,0,0,0.05,35.95,0)" xlink:href="#S"/><use transform="matrix(0.05,0,0,0.05,45.95,0)" xlink:href="#N"/><use transform="matrix(0.05,0,0,0.05,54.95,0)" xlink:href="#Q"/></g><g id="w"><use transform="matrix(0.05,0,0,0.05,0,0)" xlink:href="#J"/><use transform="matrix(0.05,0,0,0.05,3.95,0)" xlink:href="#M"/><use transform="matrix(0.05,0,0,0.05,13.949999999999998,0)" xlink:href="#N"/><use transform="matrix(0.05,0,0,0.05,22.95,0)" xlink:href="#S"/><use transform="matrix(0.05,0,0,0.05,32.95,0)" xlink:href="#T"/><use transform="matrix(0.05,0,0,0.05,38.900000000000006,0)" xlink:href="#Q"/><use transform="matrix(0.05,0,0,0.05,43.900000000000006,0)" xlink:href="#N"/></g><path d="M206 0h-36l-40-164L89 0H53L-1-190h32L70-26l43-164h34l41 164 42-164h31" id="af"/><g id="x"><use transform="matrix(0.05,0,0,0.05,0,0)" xlink:href="#M"/><use transform="matrix(0.05,0,0,0.05,10,0)" xlink:href="#S"/><use transform="matrix(0.05,0,0,0.05,20,0)" xlink:href="#af"/></g><g id="y"><use transform="matrix(0.05,0,0,0.05,0,0)" xlink:href="#L"/><use transform="matrix(0.05,0,0,0.05,10,0)" xlink:href="#T"/><use transform="matrix(0.05,0,0,0.05,15.949999999999998,0)" xlink:href="#Z"/><use transform="matrix(0.05,0,0,0.05,25.950000000000003,0)" xlink:href="#S"/><use transform="matrix(0.05,0,0,0.05,35.95,0)" xlink:href="#T"/></g><g id="z"><use transform="matrix(0.05,0,0,0.05,0,0)" xlink:href="#P"/><use transform="matrix(0.05,0,0,0.05,3.95,0)" xlink:href="#L"/><use transform="matrix(0.05,0,0,0.05,13.949999999999998,0)" xlink:href="#V"/><use transform="matrix(0.05,0,0,0.05,22.95,0)" xlink:href="#H"/><use transform="matrix(0.05,0,0,0.05,32.95,0)" xlink:href="#Q"/><use transform="matrix(0.05,0,0,0.05,37.95,0)" xlink:href="#S"/><use transform="matrix(0.05,0,0,0.05,47.95,0)" xlink:href="#N"/></g><path d="M115-194c55 1 70 41 70 98S169 2 115 4C84 4 66-9 55-30l1 105H24l-1-265h31l2 30c10-21 28-34 59-34zm-8 174c40 0 45-34 45-75s-6-73-45-74c-42 0-51 32-51 76 0 43 10 73 51 73" id="ag"/><g id="A"><use transform="matrix(0.05,0,0,0.05,0,0)" xlink:href="#O"/><use transform="matrix(0.05,0,0,0.05,10,0)" xlink:href="#ag"/><use transform="matrix(0.05,0,0,0.05,20,0)" xlink:href="#Z"/><use transform="matrix(0.05,0,0,0.05,30,0)" xlink:href="#H"/><use transform="matrix(0.05,0,0,0.05,40,0)" xlink:href="#Q"/><use transform="matrix(0.05,0,0,0.05,45,0)" xlink:href="#S"/><use transform="matrix(0.05,0,0,0.05,55,0)" xlink:href="#N"/></g><g id="B"><use transform="matrix(0.05,0,0,0.05,0,0)" xlink:href="#ac"/><use transform="matrix(0.05,0,0,0.05,3.4000000000000004,0)" xlink:href="#N"/></g><path d="M190 0L58-211 59 0H30v-248h39L202-35l-2-213h31V0h-41" id="ah"/><path d="M101-234c-31-9-42 10-38 44h38v23H63V0H32v-167H5v-23h27c-7-52 17-82 69-68v24" id="ai"/><g id="C"><use transform="matrix(0.05,0,0,0.05,0,0)" xlink:href="#ah"/><use transform="matrix(0.05,0,0,0.05,12.950000000000001,0)" xlink:href="#L"/><use transform="matrix(0.05,0,0,0.05,22.950000000000003,0)" xlink:href="#Q"/><use transform="matrix(0.05,0,0,0.05,27.950000000000003,0)" xlink:href="#J"/><use transform="matrix(0.05,0,0,0.05,31.900000000000002,0)" xlink:href="#ai"/><use transform="matrix(0.05,0,0,0.05,36.900000000000006,0)" xlink:href="#J"/><use transform="matrix(0.05,0,0,0.05,40.85000000000001,0)" xlink:href="#S"/><use transform="matrix(0.05,0,0,0.05,50.85000000000001,0)" xlink:href="#N"/></g><g id="D"><use transform="matrix(0.05,0,0,0.05,0,0)" xlink:href="#O"/><use transform="matrix(0.05,0,0,0.05,10,0)" xlink:href="#N"/><use transform="matrix(0.05,0,0,0.05,19,0)" xlink:href="#S"/><use transform="matrix(0.05,0,0,0.05,29,0)" xlink:href="#T"/></g><g id="E"><use transform="matrix(0.05,0,0,0.05,0,0)" xlink:href="#ad"/><use transform="matrix(0.05,0,0,0.05,5,0)" xlink:href="#M"/><use transform="matrix(0.05,0,0,0.05,15,0)" xlink:href="#N"/><use transform="matrix(0.05,0,0,0.05,24,0)" xlink:href="#S"/><use transform="matrix(0.05,0,0,0.05,34,0)" xlink:href="#T"/><use transform="matrix(0.05,0,0,0.05,39.95,0)" xlink:href="#Q"/><use transform="matrix(0.05,0,0,0.05,44.95,0)" xlink:href="#N"/></g></defs></g></svg>