<?xml version="1.0" encoding="UTF-8" standalone="no" ?>
<!DOCTYPE svg PUBLIC "-//W3C//DTD SVG 1.1//EN" "http://www.w3.org/Graphics/SVG/1.1/DTD/svg11.dtd">
<svg xmlns="http://www.w3.org/2000/svg" xmlns:xlink="http://www.w3.org/1999/xlink" version="1.1" width="210.35997009277344" height="149.432" xml:space="preserve">
<desc>Created with Fabric.js 1.6.0-rc.1</desc>
<defs></defs>
  <g transform="translate(105.68 113.72)">
   <text font-family="Merkin Foo" font-size="40" font-weight="normal" style="stroke: none; stroke-width: 1; stroke-dasharray: none; stroke-linecap: butt; stroke-linejoin: miter; stroke-miterlimit: 10; fill: #01010a; fill-rule: nonzero; opacity: 1;" ><tspan x="-95.18" y="8.98" style="stroke: none; stroke-width: 0; stroke-dasharray: none; stroke-linecap: butt; stroke-linejoin: miter; stroke-miterlimit: 4; fill: #01010a; fill-rule: ; opacity: 1;">G</tspan><tspan x="-62.06" y="8.98" style="stroke: none; stroke-width: 0; stroke-dasharray: none; stroke-linecap: butt; stroke-linejoin: miter; stroke-miterlimit: 4; fill: #01010a; fill-rule: ; opacity: 1;">o</tspan><tspan x="-34.86" y="8.98" style="stroke: none; stroke-width: 0; stroke-dasharray: none; stroke-linecap: butt; stroke-linejoin: miter; stroke-miterlimit: 4; fill: #01010a; fill-rule: ; opacity: 1;">-</tspan><tspan x="-17.38" y="8.98" style="stroke: none; stroke-width: 0; stroke-dasharray: none; stroke-linecap: butt; stroke-linejoin: miter; stroke-miterlimit: 4; fill: #01010a; fill-rule: ; opacity: 1;">F</tspan><tspan x="11.86" y="8.98" style="stroke: none; stroke-width: 0; stroke-dasharray: none; stroke-linecap: butt; stroke-linejoin: miter; stroke-miterlimit: 4; fill: #01010a; fill-rule: ; opacity: 1;">l</tspan><tspan x="26.62" y="8.98" style="stroke: none; stroke-width: 0; stroke-dasharray: none; stroke-linecap: butt; stroke-linejoin: miter; stroke-miterlimit: 4; fill: #01010a; fill-rule: ; opacity: 1;">e</tspan><tspan x="51.62" y="8.98" style="stroke: none; stroke-width: 0; stroke-dasharray: none; stroke-linecap: butt; stroke-linejoin: miter; stroke-miterlimit: 4; fill: #01010a; fill-rule: ; opacity: 1;">e</tspan><tspan x="76.62" y="8.98" style="stroke: none; stroke-width: 0; stroke-dasharray: none; stroke-linecap: butt; stroke-linejoin: miter; stroke-miterlimit: 4; fill: #01010a; fill-rule: ; opacity: 1;">t</tspan></text>
 </g>
<g style="stroke: none; stroke-width: 1; stroke-dasharray: none; stroke-linecap: butt; stroke-linejoin: miter; stroke-miterlimit: 10; fill: none; fill-rule: nonzero; opacity: 1;" transform="translate(48.17999999999996 10) scale(1.26 1.26)" >
  <path d="M 49.137 7.884 C 38.354 18.668 29.61 36.472 29.61 47.65 c 0 11.181 8.743 11.501 19.526 0.717 C 59.922 37.583 68.661 19.778 68.661 8.599 C 68.661 -2.582 59.922 -2.9 49.137 7.884 L 49.137 7.884 z M 49.137 48.072 c -7.857 7.856 -14.226 5.292 -14.226 -5.724 c 0 -11.017 6.368 -26.316 14.226 -34.17 C 56.993 0.322 63.36 2.886 63.36 13.9 C 63.36 24.917 56.993 40.218 49.137 48.072" style="stroke: none; stroke-width: 1; stroke-dasharray: none; stroke-linecap: butt; stroke-linejoin: miter; stroke-miterlimit: 10; fill: #52514c; fill-rule: nonzero; opacity: 1;" transform=" matrix(1 0 0 1 0 0) " stroke-linecap="round" />
  <path d="M 73.259 7.884 C 49.623 18.668 19.661 36.472 6.339 47.65 c -13.321 11.181 -4.964 11.501 18.675 0.717 C 48.649 37.583 78.61 19.778 91.933 8.599 C 105.257 -2.582 96.896 -2.9 73.259 7.884 L 73.259 7.884 z M 25.364 48.072 c -17.219 7.856 -20.533 5.292 -7.402 -5.724 C 31.09 31.332 55.69 16.032 72.906 8.179 C 90.125 0.322 93.44 2.886 80.313 13.9 C 67.182 24.917 42.581 40.218 25.364 48.072" style="stroke: none; stroke-width: 1; stroke-dasharray: none; stroke-linecap: butt; stroke-linejoin: miter; stroke-miterlimit: 10; fill: #FF3333; fill-rule: nonzero; opacity: 1;" transform=" matrix(1 0 0 1 0 0) " stroke-linecap="round" />
  <path d="M 29.61 8.599 c 0 11.18 8.743 28.984 19.526 39.769 c 10.785 10.784 19.524 10.464 19.524 -0.717 c 0 -11.179 -8.739 -28.982 -19.524 -39.767 C 38.354 -2.9 29.61 -2.582 29.61 8.599 z M 34.911 13.9 c 0 -11.015 6.368 -13.578 14.226 -5.722 c 7.856 7.854 14.224 23.153 14.224 34.17 c 0 11.016 -6.367 13.58 -14.224 5.724 C 41.279 40.218 34.911 24.917 34.911 13.9" style="stroke: none; stroke-width: 1; stroke-dasharray: none; stroke-linecap: butt; stroke-linejoin: miter; stroke-miterlimit: 10; fill: #257AC3; fill-rule: nonzero; opacity: 1;" transform=" matrix(1 0 0 1 0 0) " stroke-linecap="round" />
</g>
</svg>