<?xml version="1.0" encoding="UTF-8" standalone="no" ?>
<!DOCTYPE svg PUBLIC "-//W3C//DTD SVG 1.1//EN" "http://www.w3.org/Graphics/SVG/1.1/DTD/svg11.dtd">
<svg xmlns="http://www.w3.org/2000/svg" xmlns:xlink="http://www.w3.org/1999/xlink" version="1.1" width="439.3613" height="432.63020000000006" xml:space="preserve">
<desc>Created with Fabric.js 1.6.0-rc.1</desc>
<defs></defs>
  <g transform="translate(224.43 309.61) scale(2.81 2.81)">
   <text font-family="Dooodleista" font-size="40" font-weight="normal" style="stroke: none; stroke-width: 1; stroke-dasharray: none; stroke-linecap: butt; stroke-linejoin: miter; stroke-miterlimit: 10; fill: #e83c1e; fill-rule: nonzero; opacity: 1;" ><tspan x="-44.48" y="8.98" style="stroke: none; stroke-width: 0; stroke-dasharray: none; stroke-linecap: butt; stroke-linejoin: miter; stroke-miterlimit: 4; fill: #e83c1e; fill-rule: ; opacity: 1;">G</tspan><tspan x="-33.36" y="8.98" style="stroke: none; stroke-width: 0; stroke-dasharray: none; stroke-linecap: butt; stroke-linejoin: miter; stroke-miterlimit: 4; fill: #e83c1e; fill-rule: ; opacity: 1;">o</tspan><tspan x="-22.8" y="8.98" style="stroke: none; stroke-width: 0; stroke-dasharray: none; stroke-linecap: butt; stroke-linejoin: miter; stroke-miterlimit: 4; fill: #e83c1e; fill-rule: ; opacity: 1;"> </tspan><tspan x="-12.8" y="8.98" style="stroke: none; stroke-width: 0; stroke-dasharray: none; stroke-linecap: butt; stroke-linejoin: miter; stroke-miterlimit: 4; fill: #e83c1e; fill-rule: ; opacity: 1;">F</tspan><tspan x="-1.12" y="8.98" style="stroke: none; stroke-width: 0; stroke-dasharray: none; stroke-linecap: butt; stroke-linejoin: miter; stroke-miterlimit: 4; fill: #e83c1e; fill-rule: ; opacity: 1;">l</tspan><tspan x="10" y="8.98" style="stroke: none; stroke-width: 0; stroke-dasharray: none; stroke-linecap: butt; stroke-linejoin: miter; stroke-miterlimit: 4; fill: #e83c1e; fill-rule: ; opacity: 1;">e</tspan><tspan x="21.12" y="8.98" style="stroke: none; stroke-width: 0; stroke-dasharray: none; stroke-linecap: butt; stroke-linejoin: miter; stroke-miterlimit: 4; fill: #e83c1e; fill-rule: ; opacity: 1;">e</tspan><tspan x="32.24" y="8.98" style="stroke: none; stroke-width: 0; stroke-dasharray: none; stroke-linecap: butt; stroke-linejoin: miter; stroke-miterlimit: 4; fill: #e83c1e; fill-rule: ; opacity: 1;">t</tspan></text>
 </g>
<g style="stroke: none; stroke-width: 1; stroke-dasharray: none; stroke-linecap: butt; stroke-linejoin: miter; stroke-miterlimit: 10; fill: none; fill-rule: nonzero; opacity: 1;" transform="translate(44.039999999999964 123.86000000000001) scale(1.57 1.57)" >
  <path d="M 187.726 52.378 c 0.157 -2.251 0.171 -4.753 -0.088 -7.365 c -0.688 -6.952 -3.866 -15.609 -3.866 -15.609 l -7.826 -24.596 l -0.836 -0.109 l -0.002 -0.01 L 139.266 0 L 116.46 7.85 l 0.103 3.73 l -3.227 -0.405 L 57.47 30.449 v 35.264 l 6.216 -0.105 c -0.045 0.379 -0.07 0.767 -0.07 1.166 c 0 3.612 1.858 6.542 4.147 6.542 h 3.872 c 1.366 0 2.575 -1.049 3.33 -2.658 c 0.847 1.769 2.188 2.913 3.703 2.913 h 4.317 c 2.56 0 4.632 -3.27 4.632 -7.306 c 0 -0.361 -0.016 -0.718 -0.049 -1.066 l 6.646 -0.113 c -0.058 0.488 -0.09 0.995 -0.09 1.514 c 0 4.033 1.858 7.302 4.147 7.302 h 3.868 c 1.52 0 2.847 -1.438 3.567 -3.584 c 0.851 1.953 2.088 3.184 3.463 3.184 h 4.319 c 2.476 0 4.498 -3.97 4.625 -8.965 l 0.733 -0.004 l 0.003 0.123 l 10.206 -0.044 c 0.272 5.474 3.175 9.783 6.718 9.783 h 6.543 c 3.62 0 6.576 -4.51 6.733 -10.162 l 9.93 -0.511 c 0.504 5.083 3.291 8.973 6.656 8.973 h 6.544 c 3.477 0 6.339 -4.153 6.698 -9.485 l 11.082 -0.882 l 0.092 -8.832 L 187.726 52.378 z M 122.727 29.735 l -1.179 -19.968 l 17.497 -5.069 l 4.25 21.912 L 122.727 29.735 z M 147.055 26.119 l -4.25 -22.238 l 31.068 3.76 l 6.214 19.95 L 147.055 26.119 z" style="stroke: none; stroke-width: 1; stroke-dasharray: none; stroke-linecap: butt; stroke-linejoin: miter; stroke-miterlimit: 10; fill: #e83c1e; fill-rule: nonzero; opacity: 1;" transform=" matrix(1 0 0 1 0 0) " stroke-linecap="round" />
  <path d="M 2.616 49.203 l 51.889 -9.931 v -7.556 L 2.616 49.203 z M 54.505 53.365 v -8.043 L 2.179 58.626 L 54.505 53.365 z M 54.505 65.705 v -6.703 L 0 67.271 L 54.505 65.705 z" style="stroke: none; stroke-width: 1; stroke-dasharray: none; stroke-linecap: butt; stroke-linejoin: miter; stroke-miterlimit: 10; fill: #e61c0e; fill-rule: nonzero; opacity: 1;" transform=" matrix(1 0 0 1 0 0) " stroke-linecap="round" />
</g>
<g style="stroke: none; stroke-width: 1; stroke-dasharray: none; stroke-linecap: butt; stroke-linejoin: miter; stroke-miterlimit: 10; fill: none; fill-rule: nonzero; opacity: 1;" transform="translate(10 10) scale(0.81 0.81)" >
  <path d="M 516.727 266.696 c -0.665 -34.825 -8.221 -69.54 -22.175 -101.283 c -13.908 -31.771 -34.094 -60.551 -58.876 -84.333 c -24.767 -23.8 -54.139 -42.615 -85.929 -55.027 c -31.773 -12.46 -65.937 -18.412 -99.687 -17.69 c -33.755 0.668 -67.36 8.007 -98.091 21.539 c -30.754 13.488 -58.615 33.058 -81.632 57.071 c -23.033 24.001 -41.229 52.452 -53.222 83.229 C 5.077 200.962 -0.66 234.013 0.06 266.696 c 0.67 32.688 7.793 65.182 20.903 94.899 c 13.067 29.738 32.019 56.681 55.266 78.931 c 23.234 22.268 50.766 39.846 80.528 51.417 c 29.749 11.616 61.69 17.136 93.303 16.419 c 31.62 -0.671 63.001 -7.58 91.707 -20.268 c 28.724 -12.646 54.747 -30.979 76.231 -53.461 c 21.503 -22.469 38.461 -49.08 49.611 -77.827 c 6.79 -17.427 11.396 -35.624 13.824 -54.062 c 0.649 0.037 1.302 0.063 1.96 0.063 c 18.409 0 33.333 -14.923 33.333 -33.333 c 0 -0.936 -0.049 -1.861 -0.124 -2.777 L 516.727 266.696 L 516.727 266.696 z M 463.762 355.21 c -12.226 27.71 -29.94 52.812 -51.655 73.532 c -21.703 20.732 -47.396 37.076 -75.127 47.807 c -27.724 10.77 -57.443 15.859 -86.919 15.146 c -29.481 -0.677 -58.644 -7.154 -85.323 -18.997 c -26.692 -11.806 -50.877 -28.901 -70.83 -49.849 c -19.968 -20.938 -35.691 -45.711 -46.001 -72.427 c -10.349 -26.712 -15.223 -55.321 -14.512 -83.728 c 0.678 -28.413 6.941 -56.465 18.361 -82.131 c 11.384 -25.677 27.863 -48.943 48.045 -68.13 c 20.172 -19.202 44.026 -34.307 69.726 -44.195 c 25.697 -9.928 53.195 -14.587 80.534 -13.877 c 27.343 0.68 54.286 6.728 78.939 17.726 c 24.662 10.963 47.008 26.824 65.429 46.241 c 18.436 19.405 32.922 42.341 42.391 67.025 c 9.504 24.684 13.948 51.072 13.241 77.342 h 0.125 c -0.076 0.916 -0.125 1.841 -0.125 2.777 c 0 17.193 13.018 31.34 29.732 33.137 C 476.551 320.747 471.184 338.453 463.762 355.21 z" style="stroke: none; stroke-width: 1; stroke-dasharray: none; stroke-linecap: butt; stroke-linejoin: miter; stroke-miterlimit: 10; fill: #e83c12; fill-rule: nonzero; opacity: 1;" transform="" stroke-linecap="round" />
</g>
</svg>