<?xml version="1.0" encoding="UTF-8" standalone="no" ?>
<!DOCTYPE svg PUBLIC "-//W3C//DTD SVG 1.1//EN" "http://www.w3.org/Graphics/SVG/1.1/DTD/svg11.dtd">
<svg xmlns="http://www.w3.org/2000/svg" xmlns:xlink="http://www.w3.org/1999/xlink" version="1.1" width="224.35" height="224.35" xml:space="preserve">
<desc>Created with Fabric.js 1.6.0-rc.1</desc>
<defs></defs>
<g style="stroke: none; stroke-width: 1; stroke-dasharray: none; stroke-linecap: butt; stroke-linejoin: miter; stroke-miterlimit: 10; fill: none; fill-rule: nonzero; opacity: 1;" transform="translate(10 10) scale(3.35 3.35)" >
  <rect x="0" y="0" rx="0" ry="0" width="60" height="60" style="stroke: none; stroke-width: 1; stroke-dasharray: none; stroke-linecap: butt; stroke-linejoin: miter; stroke-miterlimit: 10; fill: #edaf11; fill-rule: nonzero; opacity: 1;" transform=" matrix(1 0 0 1 0 0) "/>
</g>
<g style="stroke: none; stroke-width: 1; stroke-dasharray: none; stroke-linecap: butt; stroke-linejoin: miter; stroke-miterlimit: 10; fill: #000000; fill-rule: nonzero; opacity: 1;" transform="translate(53.029999999999966 27.62999999999999) scale(1.89 1.89)" >
  <path d="M 2.741 26.444 c 0 15.656 12.692 28.349 28.349 28.349 c 15.657 0 28.35 -12.692 28.35 -28.349 c 0 -5.587 -1.618 -10.797 -4.408 -15.189 c 4.566 5.426 7.319 12.426 7.319 20.071 c 0 17.217 -13.956 31.174 -31.175 31.174 S 0 48.543 0 31.326 c 0 -7.26 2.481 -13.938 6.64 -19.233 C 4.164 16.302 2.741 21.204 2.741 26.444" style="stroke: none; stroke-width: 1; stroke-dasharray: none; stroke-linecap: butt; stroke-linejoin: miter; stroke-miterlimit: 10; fill: #807f78; fill-rule: nonzero; opacity: 1;" transform=" matrix(1 0 0 1 0 0) " stroke-linecap="round" />
  <path d="M 35.333 2.315 c -13.228 0 -23.95 10.723 -23.95 23.947 c 0 13.23 10.722 23.95 23.95 23.95 c 4.719 0 9.12 -1.367 12.828 -3.723 c -4.58 3.857 -10.495 6.184 -16.953 6.184 c -14.545 0 -26.336 -11.792 -26.336 -26.337 C 4.872 11.793 16.664 0 31.208 0 c 6.131 0 11.772 2.096 16.248 5.609 C 43.9 3.517 39.757 2.315 35.333 2.315" style="stroke: none; stroke-width: 1; stroke-dasharray: none; stroke-linecap: butt; stroke-linejoin: miter; stroke-miterlimit: 10; fill: #29ABE2; fill-rule: nonzero; opacity: 1;" transform=" matrix(1 0 0 1 0 0) " stroke-linecap="round" />
  <path d="M 46.695 42.732 c 7.688 -7.686 7.688 -20.151 0 -27.839 c -7.688 -7.688 -20.152 -7.688 -27.84 0 c -2.744 2.741 -4.508 6.094 -5.294 9.619 c 0.421 -4.905 2.507 -9.692 6.26 -13.447 c 8.455 -8.455 22.162 -8.455 30.616 0 c 8.455 8.455 8.455 22.16 0 30.617 c -3.565 3.563 -8.062 5.625 -12.704 6.185 C 41.016 47.016 44.124 45.304 46.695 42.732" style="stroke: none; stroke-width: 1; stroke-dasharray: none; stroke-linecap: butt; stroke-linejoin: miter; stroke-miterlimit: 10; fill: #ff1100; fill-rule: nonzero; opacity: 1;" transform=" matrix(1 0 0 1 0 0) " stroke-linecap="round" />
</g>
  <g transform="translate(113.97 173.72)">
   <text font-family="ADAMCG PRO" font-size="40" font-weight="normal" style="stroke: none; stroke-width: 1; stroke-dasharray: none; stroke-linecap: butt; stroke-linejoin: miter; stroke-miterlimit: 10; fill: #e8071a; fill-rule: nonzero; opacity: 1;" ><tspan x="-97.31" y="8.98" style="stroke: none; stroke-width: 0; stroke-dasharray: none; stroke-linecap: butt; stroke-linejoin: miter; stroke-miterlimit: 4; fill: #e8071a; fill-rule: ; opacity: 1;">G</tspan><tspan x="-68.92" y="8.98" style="stroke: none; stroke-width: 0; stroke-dasharray: none; stroke-linecap: butt; stroke-linejoin: miter; stroke-miterlimit: 4; fill: #e8071a; fill-rule: ; opacity: 1;">o</tspan><tspan x="-34.97" y="8.98" style="stroke: none; stroke-width: 0; stroke-dasharray: none; stroke-linecap: butt; stroke-linejoin: miter; stroke-miterlimit: 4; fill: #e8071a; fill-rule: ; opacity: 1;">-</tspan><tspan x="-16.3" y="8.98" style="stroke: none; stroke-width: 0; stroke-dasharray: none; stroke-linecap: butt; stroke-linejoin: miter; stroke-miterlimit: 4; fill: #e8071a; fill-rule: ; opacity: 1;">F</tspan><tspan x="7" y="8.98" style="stroke: none; stroke-width: 0; stroke-dasharray: none; stroke-linecap: butt; stroke-linejoin: miter; stroke-miterlimit: 4; fill: #e8071a; fill-rule: ; opacity: 1;">l</tspan><tspan x="27.43" y="8.98" style="stroke: none; stroke-width: 0; stroke-dasharray: none; stroke-linecap: butt; stroke-linejoin: miter; stroke-miterlimit: 4; fill: #e8071a; fill-rule: ; opacity: 1;">e</tspan><tspan x="50.69" y="8.98" style="stroke: none; stroke-width: 0; stroke-dasharray: none; stroke-linecap: butt; stroke-linejoin: miter; stroke-miterlimit: 4; fill: #e8071a; fill-rule: ; opacity: 1;">e</tspan><tspan x="73.96" y="8.98" style="stroke: none; stroke-width: 0; stroke-dasharray: none; stroke-linecap: butt; stroke-linejoin: miter; stroke-miterlimit: 4; fill: #e8071a; fill-rule: ; opacity: 1;">t</tspan></text>
 </g>
</svg>