<?xml version="1.0" encoding="UTF-8" standalone="no" ?>
<!DOCTYPE svg PUBLIC "-//W3C//DTD SVG 1.1//EN" "http://www.w3.org/Graphics/SVG/1.1/DTD/svg11.dtd">
<svg xmlns="http://www.w3.org/2000/svg" xmlns:xlink="http://www.w3.org/1999/xlink" version="1.1" width="370.87994506835935" height="244.155" xml:space="preserve">
<desc>Created with Fabric.js 1.6.0-rc.1</desc>
<defs></defs>
  <g transform="translate(227.58 120.75)">
   <text font-family="Elektora" font-size="40" font-weight="normal" style="stroke: none; stroke-width: 1; stroke-dasharray: none; stroke-linecap: butt; stroke-linejoin: miter; stroke-miterlimit: 10; fill: #f5140c; fill-rule: nonzero; opacity: 1;" ><tspan x="-133.8" y="8.98" style="stroke: none; stroke-width: 0; stroke-dasharray: none; stroke-linecap: butt; stroke-linejoin: miter; stroke-miterlimit: 4; fill: #f5140c; fill-rule: ; opacity: 1;">G</tspan><tspan x="-100.48" y="8.98" style="stroke: none; stroke-width: 0; stroke-dasharray: none; stroke-linecap: butt; stroke-linejoin: miter; stroke-miterlimit: 4; fill: #f5140c; fill-rule: ; opacity: 1;">o</tspan><tspan x="-64" y="8.98" style="stroke: none; stroke-width: 0; stroke-dasharray: none; stroke-linecap: butt; stroke-linejoin: miter; stroke-miterlimit: 4; fill: #f5140c; fill-rule: ; opacity: 1;">-</tspan><tspan x="-42.48" y="8.98" style="stroke: none; stroke-width: 0; stroke-dasharray: none; stroke-linecap: butt; stroke-linejoin: miter; stroke-miterlimit: 4; fill: #f5140c; fill-rule: ; opacity: 1;">F</tspan><tspan x="-12.12" y="8.98" style="stroke: none; stroke-width: 0; stroke-dasharray: none; stroke-linecap: butt; stroke-linejoin: miter; stroke-miterlimit: 4; fill: #f5140c; fill-rule: ; opacity: 1;">l</tspan><tspan x="24.24" y="8.98" style="stroke: none; stroke-width: 0; stroke-dasharray: none; stroke-linecap: butt; stroke-linejoin: miter; stroke-miterlimit: 4; fill: #f5140c; fill-rule: ; opacity: 1;">e</tspan><tspan x="60.76" y="8.98" style="stroke: none; stroke-width: 0; stroke-dasharray: none; stroke-linecap: butt; stroke-linejoin: miter; stroke-miterlimit: 4; fill: #f5140c; fill-rule: ; opacity: 1;">e</tspan><tspan x="97.28" y="8.98" style="stroke: none; stroke-width: 0; stroke-dasharray: none; stroke-linecap: butt; stroke-linejoin: miter; stroke-miterlimit: 4; fill: #f5140c; fill-rule: ; opacity: 1;">t</tspan></text>
 </g>
<g style="stroke: none; stroke-width: 1; stroke-dasharray: none; stroke-linecap: butt; stroke-linejoin: miter; stroke-miterlimit: 10; fill: none; fill-rule: nonzero; opacity: 1;" transform="translate(10 10) scale(3.53 3.53)" >
  <path d="M 14.609 7.438 C 3.472 18.574 3.471 36.633 14.608 47.771 c 11.139 11.138 29.197 11.138 40.335 0 c 3.974 -3.975 6.529 -8.831 7.669 -13.94 c -0.61 7.106 -3.631 14.046 -9.071 19.484 C 41.293 65.564 21.436 65.564 9.186 53.314 c -12.247 -12.249 -12.247 -32.106 0 -44.354 C 14.351 3.795 20.865 0.809 27.591 0 C 22.836 1.232 18.337 3.71 14.609 7.438" style="stroke: none; stroke-width: 1; stroke-dasharray: none; stroke-linecap: butt; stroke-linejoin: miter; stroke-miterlimit: 10; fill: #6EC71D; fill-rule: nonzero; opacity: 1;" transform=" matrix(1 0 0 1 0 0) " stroke-linecap="round" />
  <path d="M 39.879 2.882 c -13.307 0 -24.094 10.786 -24.094 24.092 c 0 13.311 10.787 24.094 24.094 24.094 c 4.748 0 9.175 -1.375 12.905 -3.745 c -4.607 3.881 -10.558 6.222 -17.054 6.222 c -14.634 0 -26.497 -11.862 -26.497 -26.496 c 0 -14.632 11.863 -26.495 26.497 -26.495 c 6.167 0 11.842 2.107 16.345 5.642 C 48.499 4.09 44.33 2.882 39.879 2.882" style="stroke: none; stroke-width: 1; stroke-dasharray: none; stroke-linecap: butt; stroke-linejoin: miter; stroke-miterlimit: 10; fill: #00A2FF; fill-rule: nonzero; opacity: 1;" transform=" matrix(1 0 0 1 0 0) " stroke-linecap="round" />
  <path d="M 57.013 15.396 c -7.731 -7.735 -20.272 -7.735 -28.007 0 c -7.735 7.733 -7.735 20.273 0 28.009 c 2.759 2.761 6.131 4.533 9.677 5.325 c -4.934 -0.424 -9.75 -2.523 -13.528 -6.298 c -8.506 -8.508 -8.506 -22.296 0 -30.803 c 8.506 -8.506 22.295 -8.505 30.804 0 c 3.583 3.586 5.657 8.111 6.22 12.782 C 61.321 21.107 59.601 17.982 57.013 15.396" style="stroke: none; stroke-width: 1; stroke-dasharray: none; stroke-linecap: butt; stroke-linejoin: miter; stroke-miterlimit: 10; fill: #FF9933; fill-rule: nonzero; opacity: 1;" transform=" matrix(1 0 0 1 0 0) " stroke-linecap="round" />
</g>
</svg>